<svg xmlns="http://www.w3.org/2000/svg" viewBox="0 0 240 180" role="img" aria-label="Compartilha Import">
  <defs>
    <linearGradient id="importBg" x1="0" x2="1" y1="0" y2="1">
      <stop offset="0" stop-color="#0F1A2C"/>
      <stop offset="1" stop-color="#1B2A3D"/>
    </linearGradient>
  </defs>
  <rect width="240" height="180" rx="22" fill="url(#importBg)"/>
  <g transform="translate(40,40)" opacity="0.9">
    <rect x="0" y="0" width="64" height="80" rx="4" fill="#7AA9D8"/>
    <rect x="6" y="8" width="32" height="3" fill="#0F1A2C" opacity="0.4"/>
    <rect x="6" y="16" width="48" height="3" fill="#0F1A2C" opacity="0.3"/>
    <rect x="6" y="24" width="40" height="3" fill="#0F1A2C" opacity="0.3"/>
    <rect x="6" y="32" width="52" height="3" fill="#0F1A2C" opacity="0.3"/>
    <rect x="6" y="40" width="44" height="3" fill="#0F1A2C" opacity="0.3"/>
  </g>
  <g transform="translate(118,82)" stroke="#7DEBC1" stroke-width="3" fill="none" stroke-linecap="round" stroke-linejoin="round">
    <line x1="0" y1="0" x2="40" y2="0"/>
    <polyline points="30,-10 40,0 30,10"/>
  </g>
  <g transform="translate(170,40)">
    <rect x="0" y="0" width="34" height="80" rx="4" fill="#5C7187"/>
    <circle cx="17" cy="40" r="10" fill="#7DEBC1"/>
    <path d="M12 40 L16 44 L22 36" stroke="#0F1A2C" stroke-width="2.5" fill="none" stroke-linecap="round" stroke-linejoin="round"/>
  </g>
</svg>
