<svg xmlns="http://www.w3.org/2000/svg" viewBox="0 0 240 180" role="img" aria-label="Compartilha LOG">
  <defs>
    <linearGradient id="logBg" x1="0" x2="1" y1="0" y2="1">
      <stop offset="0" stop-color="#0F1A2C"/>
      <stop offset="1" stop-color="#1B2A3D"/>
    </linearGradient>
  </defs>
  <rect width="240" height="180" rx="22" fill="url(#logBg)"/>
  <g stroke="rgba(255,255,255,0.05)" stroke-width="1">
    <path d="M0 130 Q 60 115 120 130 T 240 130" fill="none"/>
    <path d="M0 100 Q 60 85 120 100 T 240 100" fill="none"/>
  </g>
  <g transform="translate(36,60)">
    <rect x="0" y="20" width="80" height="50" rx="4" fill="#7AA9D8" opacity="0.9"/>
    <rect x="80" y="32" width="40" height="38" rx="4" fill="#5C7187"/>
    <rect x="86" y="38" width="14" height="14" fill="#A6C4DD" opacity="0.7"/>
    <circle cx="22" cy="76" r="9" fill="#0F1A2C" stroke="#F4F6FA" stroke-width="2"/>
    <circle cx="22" cy="76" r="3" fill="#F4F6FA"/>
    <circle cx="98" cy="76" r="9" fill="#0F1A2C" stroke="#F4F6FA" stroke-width="2"/>
    <circle cx="98" cy="76" r="3" fill="#F4F6FA"/>
  </g>
  <g transform="translate(150,30)" stroke="#7DEBC1" stroke-width="1.5" fill="none" opacity="0.8">
    <path d="M0 0 L40 0 L40 12 M0 0 L0 12 M20 0 L20 12"/>
    <circle cx="48" cy="6" r="3" fill="#7DEBC1"/>
  </g>
</svg>
