<svg xmlns="http://www.w3.org/2000/svg" viewBox="0 0 240 180" role="img" aria-label="Compartilha Socorro Auto 24H">
  <defs>
    <linearGradient id="autoBg" x1="0" x2="1" y1="0" y2="1">
      <stop offset="0" stop-color="#0F1A2C"/>
      <stop offset="1" stop-color="#1B2A3D"/>
    </linearGradient>
  </defs>
  <rect width="240" height="180" rx="22" fill="url(#autoBg)"/>
  <g opacity="0.5" stroke="rgba(255,255,255,0.07)">
    <circle cx="120" cy="90" r="50" fill="none"/>
    <circle cx="120" cy="90" r="70" fill="none"/>
    <circle cx="120" cy="90" r="90" fill="none"/>
  </g>
  <g transform="translate(60,80)">
    <path d="M0 30 L8 18 Q12 12 20 12 L80 12 Q88 12 92 18 L100 30 L100 42 Q100 46 96 46 L88 46 Q84 46 84 42 L84 38 L16 38 L16 42 Q16 46 12 46 L4 46 Q0 46 0 42 Z" fill="#7AA9D8"/>
    <circle cx="22" cy="42" r="8" fill="#0F1A2C" stroke="#F4F6FA" stroke-width="2"/>
    <circle cx="78" cy="42" r="8" fill="#0F1A2C" stroke="#F4F6FA" stroke-width="2"/>
    <rect x="20" y="16" width="60" height="14" rx="2" fill="#A6C4DD" opacity="0.6"/>
  </g>
  <g transform="translate(170,30)">
    <rect x="-4" y="-12" width="8" height="24" fill="#FF6B6B"/>
    <rect x="-12" y="-4" width="24" height="8" fill="#FF6B6B"/>
  </g>
  <text x="156" y="150" font-family="'Space Grotesk', sans-serif" font-size="14" font-weight="700" fill="#7DEBC1" letter-spacing="2">24H</text>
</svg>
