<svg xmlns="http://www.w3.org/2000/svg" viewBox="0 0 240 180" role="img" aria-label="Compartilha Pallet Control">
  <defs>
    <linearGradient id="palletBg" x1="0" x2="1" y1="0" y2="1">
      <stop offset="0" stop-color="#0F1A2C"/>
      <stop offset="1" stop-color="#1B2A3D"/>
    </linearGradient>
    <linearGradient id="palletAccent" x1="0" x2="1" y1="0" y2="0">
      <stop offset="0" stop-color="#7AA9D8"/>
      <stop offset="1" stop-color="#5C7187"/>
    </linearGradient>
  </defs>
  <rect width="240" height="180" rx="22" fill="url(#palletBg)"/>
  <g stroke="rgba(255,255,255,0.06)" stroke-width="1">
    <line x1="0" y1="40" x2="240" y2="40"/>
    <line x1="0" y1="80" x2="240" y2="80"/>
    <line x1="0" y1="120" x2="240" y2="120"/>
    <line x1="60" y1="0" x2="60" y2="180"/>
    <line x1="120" y1="0" x2="120" y2="180"/>
    <line x1="180" y1="0" x2="180" y2="180"/>
  </g>
  <g transform="translate(40,40)">
    <rect x="0" y="80" width="160" height="14" fill="url(#palletAccent)" opacity="0.85"/>
    <rect x="0" y="84" width="6" height="20" fill="#5C7187"/>
    <rect x="77" y="84" width="6" height="20" fill="#5C7187"/>
    <rect x="154" y="84" width="6" height="20" fill="#5C7187"/>
    <rect x="14" y="58" width="58" height="22" fill="#7AA9D8" opacity="0.85"/>
    <rect x="88" y="58" width="58" height="22" fill="#7AA9D8" opacity="0.7"/>
    <rect x="14" y="32" width="58" height="22" fill="#A6C4DD" opacity="0.6"/>
    <rect x="88" y="32" width="58" height="22" fill="#A6C4DD" opacity="0.55"/>
  </g>
  <circle cx="200" cy="32" r="6" fill="#7DEBC1"/>
  <circle cx="200" cy="32" r="11" fill="none" stroke="#7DEBC1" stroke-opacity="0.35" stroke-width="1.5"/>
</svg>
