<svg xmlns="http://www.w3.org/2000/svg" viewBox="-50 -50 100 100" role="img" aria-label="Bluhmwerk symbol">
  <path d="M -8 -42 L 8 -42 L 8 -33 L 33 -33 L 33 -8 L 42 -8 L 42 8 L 33 8 L 33 33 L 8 33 L 8 42 L -8 42 L -8 33 L -33 33 L -33 8 L -42 8 L -42 -8 L -33 -8 L -33 -33 L -8 -33 Z" fill="#1B2A3D"/>
  <line x1="0" y1="-42" x2="0" y2="-15" stroke="#F4F6FA" stroke-width="3" stroke-linecap="square"/>
  <line x1="0" y1="42" x2="0" y2="15" stroke="#F4F6FA" stroke-width="3" stroke-linecap="square"/>
  <line x1="-42" y1="0" x2="-15" y2="0" stroke="#F4F6FA" stroke-width="3" stroke-linecap="square"/>
  <line x1="42" y1="0" x2="15" y2="0" stroke="#F4F6FA" stroke-width="3" stroke-linecap="square"/>
  <circle cx="0" cy="0" r="14" fill="none" stroke="#F4F6FA" stroke-width="3"/>
  <circle cx="0" cy="0" r="6.5" fill="#5C7187"/>
</svg>
